<svg width="240" height="240" viewBox="0 0 240 240" fill="none" xmlns="http://www.w3.org/2000/svg" role="img" aria-labelledby="title desc">
  <title id="title">ORIA mascot</title>
  <desc id="desc">A compact geometric companion character for the ORIA quest app.</desc>
  <rect x="34" y="42" width="172" height="156" rx="42" fill="#17201F"/>
  <path d="M69 85C69 66.2223 84.2223 51 103 51H137C155.778 51 171 66.2223 171 85V146C171 164.778 155.778 180 137 180H103C84.2223 180 69 164.778 69 146V85Z" fill="#F9FAF6"/>
  <path d="M84 75C84 61.7452 94.7452 51 108 51H132C145.255 51 156 61.7452 156 75V89H84V75Z" fill="#21A88C"/>
  <circle cx="100" cy="119" r="11" fill="#17201F"/>
  <circle cx="140" cy="119" r="11" fill="#17201F"/>
  <circle cx="104" cy="115" r="3" fill="#F9FAF6"/>
  <circle cx="144" cy="115" r="3" fill="#F9FAF6"/>
  <path d="M98 147C109.333 154.333 130.667 154.333 142 147" stroke="#F26B4F" stroke-width="8" stroke-linecap="round"/>
  <path d="M56 123C42.7452 123 32 133.745 32 147V156C32 162.627 37.3726 168 44 168H56V123Z" fill="#F2C14E"/>
  <path d="M184 123C197.255 123 208 133.745 208 147V156C208 162.627 202.627 168 196 168H184V123Z" fill="#F2C14E"/>
  <path d="M86 198H154" stroke="#17201F" stroke-width="15" stroke-linecap="round"/>
  <path d="M72 42L59 20" stroke="#17201F" stroke-width="11" stroke-linecap="round"/>
  <path d="M168 42L181 20" stroke="#17201F" stroke-width="11" stroke-linecap="round"/>
</svg>
